<?xml version="1.0" encoding="UTF-8" standalone="no"?>
<!-- Created with Inkscape (http://www.inkscape.org/) -->

<svg
   xmlns:dc="http://purl.org/dc/elements/1.1/"
   xmlns:cc="http://creativecommons.org/ns#"
   xmlns:rdf="http://www.w3.org/1999/02/22-rdf-syntax-ns#"
   xmlns:svg="http://www.w3.org/2000/svg"
   xmlns="http://www.w3.org/2000/svg"
   xmlns:xlink="http://www.w3.org/1999/xlink"
   xmlns:sodipodi="http://sodipodi.sourceforge.net/DTD/sodipodi-0.dtd"
   xmlns:inkscape="http://www.inkscape.org/namespaces/inkscape"
   width="212mm"
   height="297mm"
   viewBox="0 0 751.18111 1052.3622"
   id="svg5251"
   version="1.1"
   inkscape:version="0.91 r13725"
   sodipodi:docname="drawing.svg">
  <defs
     id="defs5253">
    <marker
       inkscape:stockid="Arrow1Lend"
       orient="auto"
       refY="0"
       refX="0"
       id="Arrow1Lend"
       style="overflow:visible"
       inkscape:isstock="true">
      <path
         id="path49848"
         d="M 0,0 5,-5 -12.5,0 5,5 0,0 Z"
         style="fill-rule:evenodd;stroke:#000000;stroke-width:1pt"
         transform="matrix(-0.8,0,0,-0.8,-10,0)"
         inkscape:connector-curvature="0" />
    </marker>
    <marker
       inkscape:stockid="Arrow1Lstart"
       orient="auto"
       refY="0"
       refX="0"
       id="Arrow1Lstart"
       style="overflow:visible"
       inkscape:isstock="true">
      <path
         id="path49845"
         d="M 0,0 5,-5 -12.5,0 5,5 0,0 Z"
         style="fill-rule:evenodd;stroke:#000000;stroke-width:1pt"
         transform="matrix(0.8,0,0,0.8,10,0)"
         inkscape:connector-curvature="0" />
    </marker>
    <symbol
       id="basic_notebook_pen"
       viewBox="0 0 64 64">
      <polygon
         stroke-miterlimit="10"
         points="55,3 63,3 63,53 59,61 55,53 "
         id="polygon2077"
         style="fill:none;stroke:#000000;stroke-width:2;stroke-miterlimit:10" />
      <polyline
         stroke-miterlimit="10"
         points="55,7 51,7 51,17 "
         id="polyline2079"
         style="fill:none;stroke:#000000;stroke-width:2;stroke-miterlimit:10" />
      <rect
         x="4"
         y="3"
         stroke-miterlimit="10"
         width="40"
         height="58"
         id="rect2081"
         style="fill:none;stroke:#000000;stroke-width:2;stroke-miterlimit:10" />
      <line
         stroke-miterlimit="10"
         x1="34"
         y1="3"
         x2="34"
         y2="60"
         id="line2083"
         style="fill:none;stroke:#000000;stroke-width:2;stroke-miterlimit:10" />
      <line
         stroke-miterlimit="10"
         x1="8"
         y1="16"
         x2="0"
         y2="16"
         id="line2085"
         style="fill:none;stroke:#000000;stroke-width:2;stroke-miterlimit:10" />
      <line
         stroke-miterlimit="10"
         x1="8"
         y1="8"
         x2="0"
         y2="8"
         id="line2087"
         style="fill:none;stroke:#000000;stroke-width:2;stroke-miterlimit:10" />
      <line
         stroke-miterlimit="10"
         x1="8"
         y1="24"
         x2="0"
         y2="24"
         id="line2089"
         style="fill:none;stroke:#000000;stroke-width:2;stroke-miterlimit:10" />
      <line
         stroke-miterlimit="10"
         x1="8"
         y1="32"
         x2="0"
         y2="32"
         id="line2091"
         style="fill:none;stroke:#000000;stroke-width:2;stroke-miterlimit:10" />
      <line
         stroke-miterlimit="10"
         x1="8"
         y1="40"
         x2="0"
         y2="40"
         id="line2093"
         style="fill:none;stroke:#000000;stroke-width:2;stroke-miterlimit:10" />
      <line
         stroke-miterlimit="10"
         x1="8"
         y1="48"
         x2="0"
         y2="48"
         id="line2095"
         style="fill:none;stroke:#000000;stroke-width:2;stroke-miterlimit:10" />
      <line
         stroke-miterlimit="10"
         x1="8"
         y1="56"
         x2="0"
         y2="56"
         id="line2097"
         style="fill:none;stroke:#000000;stroke-width:2;stroke-miterlimit:10" />
    </symbol>
    <symbol
       id="basic_settings"
       viewBox="0 0 64 64">
      <line
         stroke-miterlimit="10"
         x1="36"
         y1="34"
         x2="41"
         y2="39"
         id="line2347"
         style="fill:none;stroke:#000000;stroke-width:2;stroke-miterlimit:10" />
      <rect
         x="46.257"
         y="35.064999"
         transform="matrix(-0.7071,0.7071,-0.7071,-0.7071,120.5036,47.0858)"
         stroke-miterlimit="10"
         width="8.4849997"
         height="26.870001"
         id="rect2349"
         style="fill:none;stroke:#000000;stroke-width:2;stroke-miterlimit:10" />
      <polygon
         stroke-miterlimit="10"
         points="12,16 18,10 8,4 6,6 "
         id="polygon2351"
         style="fill:none;stroke:#000000;stroke-width:2;stroke-miterlimit:10" />
      <line
         stroke-miterlimit="10"
         x1="28"
         y1="26"
         x2="15"
         y2="13"
         id="line2353"
         style="fill:none;stroke:#000000;stroke-width:2;stroke-miterlimit:10" />
      <path
         stroke-miterlimit="10"
         d="m 58,12.5 -8,3.75 -4,-4.125 3.5,-8.062 0,0 C 39.5,4.062 37,9 37,14 L 37,18 3.5,52 1.75,58 3.875,60 9.937,58.5 44,25 l 4,0 c 5,0 10,-2.5 10,-12.5 l 0,0 z"
         id="path2355"
         inkscape:connector-curvature="0"
         style="fill:none;stroke:#000000;stroke-width:2;stroke-miterlimit:10" />
    </symbol>
    <symbol
       id="basic_elaboration_tablet_heart"
       viewBox="0 0 64 64">
      <g
         id="g5692">
        <rect
           x="11"
           y="1"
           stroke-miterlimit="10"
           width="42"
           height="62"
           id="rect5694"
           style="fill:none;stroke:#000000;stroke-width:2;stroke-miterlimit:10" />
      </g>
      <path
         stroke-miterlimit="10"
         d="m 22,27 c 0,6.666 10,12 10,12 0,0 10,-5.334 10,-12 0,-2.762 -2,-5 -5,-5 -2.762,0 -5,2.238 -5,5 0,-2.762 -2.238,-5 -5,-5 -3,0 -5,2.238 -5,5 z"
         id="path5696"
         inkscape:connector-curvature="0"
         style="fill:none;stroke:#000000;stroke-width:2;stroke-miterlimit:10" />
      <line
         stroke-miterlimit="10"
         x1="28"
         y1="5"
         x2="36"
         y2="5"
         id="line5698"
         style="fill:none;stroke:#000000;stroke-width:2;stroke-miterlimit:10" />
      <line
         stroke-miterlimit="10"
         x1="11"
         y1="51"
         x2="53"
         y2="51"
         id="line5700"
         style="fill:none;stroke:#000000;stroke-width:2;stroke-miterlimit:10" />
      <line
         stroke-miterlimit="10"
         x1="11"
         y1="9"
         x2="53"
         y2="9"
         id="line5702"
         style="fill:none;stroke:#000000;stroke-width:2;stroke-miterlimit:10" />
      <circle
         stroke-miterlimit="10"
         cx="32"
         cy="57"
         r="2"
         id="circle5704"
         style="fill:none;stroke:#000000;stroke-width:2;stroke-linejoin:bevel;stroke-miterlimit:10" />
    </symbol>
    <symbol
       id="basic_elaboration_smartphone_picture"
       viewBox="0 0 64 64">
      <g
         id="g5616">
        <rect
           x="16"
           y="1"
           stroke-miterlimit="10"
           width="32"
           height="62"
           id="rect5618"
           style="fill:none;stroke:#000000;stroke-width:2;stroke-miterlimit:10" />
        <line
           stroke-miterlimit="10"
           x1="28"
           y1="5"
           x2="36"
           y2="5"
           id="line5620"
           style="fill:none;stroke:#000000;stroke-width:2;stroke-miterlimit:10" />
        <line
           stroke-miterlimit="10"
           x1="16"
           y1="51"
           x2="48"
           y2="51"
           id="line5622"
           style="fill:none;stroke:#000000;stroke-width:2;stroke-miterlimit:10" />
        <line
           stroke-miterlimit="10"
           x1="16"
           y1="9"
           x2="48"
           y2="9"
           id="line5624"
           style="fill:none;stroke:#000000;stroke-width:2;stroke-miterlimit:10" />
        <circle
           stroke-miterlimit="10"
           cx="32"
           cy="57"
           r="2"
           id="circle5626"
           style="fill:none;stroke:#000000;stroke-width:2;stroke-linejoin:bevel;stroke-miterlimit:10" />
      </g>
      <g
         id="g5628">
        <rect
           x="22"
           y="23"
           stroke-miterlimit="10"
           width="20"
           height="14"
           id="rect5630"
           style="fill:none;stroke:#000000;stroke-width:2;stroke-miterlimit:10" />
        <polyline
           stroke-miterlimit="10"
           points="22,35 29,28 33,33 35,31 41,36  "
           id="polyline5632"
           style="fill:none;stroke:#000000;stroke-width:2;stroke-miterlimit:10" />
      </g>
      <circle
         stroke-miterlimit="10"
         cx="39"
         cy="26"
         r="3"
         id="circle5634"
         style="fill:none;stroke:#000000;stroke-width:2;stroke-miterlimit:10" />
    </symbol>
    <font
       horiz-adv-x="1024"
       id="font37334"
       inkscape:label="font 1"
       horiz-origin-x="0"
       horiz-origin-y="0"
       vert-origin-x="45"
       vert-origin-y="90"
       vert-adv-y="90">
      <font-face
         units-per-em="1024"
         id="font-face37336"
         font-family="SVGFont 1" />
      <missing-glyph
         d="M0,0h1000v1024h-1000z"
         id="missing-glyph37338" />
    </font>
    <symbol
       id="arrows_circle_left"
       viewBox="0 0 64 64">
      <g
         id="g88">
        <polyline
           stroke-miterlimit="10"
           points="27,15 44,32    27,49  "
           id="polyline90"
           style="fill:none;stroke:#000000;stroke-width:2;stroke-linejoin:bevel;stroke-miterlimit:10" />
      </g>
      <g
         id="g92">
        <circle
           stroke-miterlimit="10"
           cx="32"
           cy="32"
           r="30.999001"
           id="circle94"
           style="fill:none;stroke:#000000;stroke-width:2;stroke-miterlimit:10" />
      </g>
    </symbol>
    <symbol
       id="arrows_expand"
       viewBox="0 0 64 64">
      <g
         id="g341">
        <polyline
           stroke-miterlimit="10"
           points="1,12 1,1 12,1     "
           id="polyline343"
           style="fill:none;stroke:#000000;stroke-width:2;stroke-linejoin:bevel;stroke-miterlimit:10" />
        <polyline
           stroke-miterlimit="10"
           points="12,63 1,63 1,52     "
           id="polyline345"
           style="fill:none;stroke:#000000;stroke-width:2;stroke-linejoin:bevel;stroke-miterlimit:10" />
        <polyline
           stroke-miterlimit="10"
           points="63,52 63,63    52,63  "
           id="polyline347"
           style="fill:none;stroke:#000000;stroke-width:2;stroke-linejoin:bevel;stroke-miterlimit:10" />
        <polyline
           stroke-miterlimit="10"
           points="52,1 63,1 63,12     "
           id="polyline349"
           style="fill:none;stroke:#000000;stroke-width:2;stroke-linejoin:bevel;stroke-miterlimit:10" />
        <line
           stroke-miterlimit="10"
           x1="2"
           y1="2"
           x2="22"
           y2="22"
           id="line351"
           style="fill:none;stroke:#000000;stroke-width:2;stroke-miterlimit:10" />
        <line
           stroke-miterlimit="10"
           x1="42"
           y1="42"
           x2="62"
           y2="62"
           id="line353"
           style="fill:none;stroke:#000000;stroke-width:2;stroke-miterlimit:10" />
        <line
           stroke-miterlimit="10"
           x1="2"
           y1="62"
           x2="22"
           y2="42"
           id="line355"
           style="fill:none;stroke:#000000;stroke-width:2;stroke-miterlimit:10" />
        <line
           stroke-miterlimit="10"
           x1="42"
           y1="22"
           x2="62"
           y2="2"
           id="line357"
           style="fill:none;stroke:#000000;stroke-width:2;stroke-miterlimit:10" />
      </g>
    </symbol>
    <symbol
       id="basic_pencil_ruler_pen"
       viewBox="0 0 64 64">
      <rect
         x="22"
         y="1"
         stroke-miterlimit="10"
         width="16"
         height="62"
         id="rect2147"
         style="fill:none;stroke:#000000;stroke-width:2;stroke-miterlimit:10" />
      <line
         stroke-miterlimit="10"
         x1="31"
         y1="12"
         x2="38"
         y2="12"
         id="line2149"
         style="fill:none;stroke:#000000;stroke-width:2;stroke-miterlimit:10" />
      <line
         stroke-miterlimit="10"
         x1="38"
         y1="22"
         x2="35"
         y2="22"
         id="line2151"
         style="fill:none;stroke:#000000;stroke-width:2;stroke-miterlimit:10" />
      <line
         stroke-miterlimit="10"
         x1="38"
         y1="42"
         x2="35"
         y2="42"
         id="line2153"
         style="fill:none;stroke:#000000;stroke-width:2;stroke-miterlimit:10" />
      <line
         stroke-miterlimit="10"
         x1="31"
         y1="32"
         x2="38"
         y2="32"
         id="line2155"
         style="fill:none;stroke:#000000;stroke-width:2;stroke-miterlimit:10" />
      <line
         stroke-miterlimit="10"
         x1="31"
         y1="52"
         x2="38"
         y2="52"
         id="line2157"
         style="fill:none;stroke:#000000;stroke-width:2;stroke-miterlimit:10" />
      <polygon
         stroke-miterlimit="10"
         points="8,63 16,63 16,10 12,2 8,10 "
         id="polygon2159"
         style="fill:none;stroke:#000000;stroke-width:2;stroke-miterlimit:10" />
      <line
         stroke-miterlimit="10"
         x1="16"
         y1="53"
         x2="8"
         y2="53"
         id="line2161"
         style="fill:none;stroke:#000000;stroke-width:2;stroke-miterlimit:10" />
      <polygon
         stroke-miterlimit="10"
         points="48,3 56,3 56,53 52,61 48,53 "
         id="polygon2163"
         style="fill:none;stroke:#000000;stroke-width:2;stroke-miterlimit:10" />
      <polyline
         stroke-miterlimit="10"
         points="48,7 44,7 44,17 "
         id="polyline2165"
         style="fill:none;stroke:#000000;stroke-width:2;stroke-miterlimit:10" />
    </symbol>
    <symbol
       id="symbol18258">
      <title
         id="title18260">Settings Cell</title>
      <path
         d="m 14,48 4,0 0,-4 -4,0 0,4 z m 8,0 4,0 0,-4 -4,0 0,4 z m 8,0 4,0 0,-4 -4,0 0,4 z M 32,0.02 16,0 c -2.21,0 -4,1.79 -4,4 l 0,32 c 0,2.21 1.79,4 4,4 l 16,0 c 2.21,0 4,-1.79 4,-4 L 36,4 C 36,1.79 34.21,0.02 32,0.02 Z M 32,32 16,32 16,8 32,8 32,32 Z"
         style="stroke:none"
         id="path18262"
         inkscape:connector-curvature="0" />
    </symbol>
    <symbol
       id="symbol20504">
      <title
         id="title20506">Phonelink</title>
      <path
         d="M 8,12 44,12 44,8 8,8 C 5.79,8 4,9.79 4,12 l 0,22 -4,0 0,6 28,0 0,-6 -20,0 0,-22 z m 38,4 -12,0 c -1.1,0 -2,0.9 -2,2 l 0,20 c 0,1.1 0.9,2 2,2 l 12,0 c 1.1,0 2,-0.9 2,-2 l 0,-20 c 0,-1.1 -0.9,-2 -2,-2 z m -2,18 -8,0 0,-14 8,0 0,14 z"
         style="stroke:none"
         id="path20508"
         inkscape:connector-curvature="0" />
    </symbol>
    <symbol
       id="symbol20342">
      <title
         id="title20344">Computer</title>
      <path
         d="m 40,36 c 2.21,0 3.98,-1.79 3.98,-4 L 44,12 C 44,9.79 42.21,8 40,8 L 8,8 C 5.79,8 4,9.79 4,12 l 0,20 c 0,2.21 1.79,4 4,4 l -8,0 0,4 48,0 0,-4 -8,0 z M 8,12 40,12 40,32 8,32 8,12 Z"
         style="stroke:none"
         id="path20346"
         inkscape:connector-curvature="0" />
    </symbol>
    <symbol
       id="settings-1"
       viewBox="0 0 60 60">
      <g
         id="g4578">
        <path
           d="m 57.947,40.887 c 0.126,-0.322 0.247,-0.645 0.362,-0.972 0.064,-0.183 0.127,-0.367 0.187,-0.552 0.145,-0.439 0.279,-0.884 0.404,-1.332 0.02,-0.071 0.045,-0.14 0.064,-0.211 0.002,-0.008 0.001,-0.016 0.003,-0.024 C 59.637,35.309 60,32.697 60,30 60,13.458 46.542,0 30,0 13.458,0 0,13.458 0,30 c 0,2.845 0.407,5.595 1.15,8.205 0.003,0.011 0.001,0.022 0.004,0.032 0.014,0.048 0.032,0.095 0.046,0.143 0.142,0.486 0.295,0.966 0.46,1.442 0.035,0.1 0.067,0.202 0.102,0.301 0.189,0.525 0.389,1.045 0.606,1.557 0.114,0.27 0.24,0.532 0.361,0.798 0.094,0.205 0.185,0.411 0.284,0.614 0.18,0.372 0.37,0.737 0.564,1.1 0.03,0.056 0.06,0.113 0.091,0.169 2.992,5.506 7.634,9.939 13.322,12.668 0.007,0.003 0.015,0.007 0.022,0.011 0.362,0.173 0.728,0.338 1.098,0.497 0.17,0.074 0.341,0.145 0.513,0.216 0.303,0.124 0.607,0.247 0.916,0.362 0.297,0.111 0.598,0.212 0.899,0.314 0.188,0.063 0.37,0.135 0.559,0.195 0.01,0.003 0.02,0.002 0.03,0.004 C 23.861,59.518 26.875,60 30,60 c 3.262,0 6.402,-0.531 9.344,-1.498 0.01,-0.003 0.021,-0.001 0.032,-0.005 0.078,-0.026 0.152,-0.057 0.23,-0.083 0.42,-0.143 0.836,-0.294 1.248,-0.454 0.177,-0.069 0.354,-0.137 0.53,-0.209 0.325,-0.134 0.646,-0.276 0.965,-0.421 6.795,-3.06 12.161,-8.504 15.125,-15.3 0.062,-0.14 0.127,-0.278 0.187,-0.419 0.1,-0.239 0.192,-0.482 0.286,-0.724 z M 4.664,41.905 C 4.543,41.648 4.425,41.388 4.312,41.127 4.188,40.839 4.069,40.548 3.954,40.255 3.894,40.103 3.832,39.953 3.774,39.8 3.593,39.313 3.422,38.821 3.267,38.321 3.433,38.194 3.597,38.079 3.763,37.964 l 3.152,5.46 C 6.567,43.704 6.263,44.028 5.981,44.372 5.584,43.711 5.215,43.032 4.872,42.337 4.802,42.193 4.732,42.049 4.664,41.905 Z M 18.788,38.356 14.561,43.05 C 12.836,41.927 10.635,41.66 8.65,42.429 L 5.495,36.964 c 4.423,-2.113 9.562,-1.465 13.293,1.392 z m 3.291,3.748 c 1.152,1.995 1.715,4.2 1.715,6.392 L 23.793,48.5 c 0,0 0.001,0.004 0.001,0.006 -0.001,1.449 -0.256,2.891 -0.745,4.265 l -5.763,-2.566 c 0.439,-1.617 0.26,-3.401 -0.642,-4.963 -0.177,-0.306 -0.38,-0.587 -0.597,-0.853 l 4.222,-4.688 c 0.68,0.716 1.295,1.511 1.81,2.403 z m -1.492,14.264 c -0.179,-0.064 -0.355,-0.132 -0.533,-0.199 -1.776,-0.677 -3.464,-1.531 -5.047,-2.539 0.585,-0.457 1.076,-0.999 1.462,-1.6 l 5.764,2.566 c -0.36,0.662 -0.775,1.301 -1.259,1.903 -0.128,-0.044 -0.258,-0.085 -0.387,-0.131 z M 8.741,44.588 c 2.156,-1.248 4.925,-0.504 6.171,1.653 1.245,2.157 0.503,4.925 -1.654,6.172 -0.004,0.002 -0.008,0.005 -0.013,0.007 C 13.158,52.355 13.074,52.284 12.988,52.218 12.605,51.925 12.233,51.621 11.867,51.31 11.674,51.146 11.481,50.982 11.293,50.813 10.911,50.47 10.538,50.117 10.176,49.754 9.958,49.535 9.747,49.309 9.536,49.083 9.335,48.868 9.14,48.65 8.946,48.429 8.626,48.064 8.317,47.691 8.016,47.311 7.823,47.066 7.631,46.821 7.446,46.569 7.344,46.431 7.247,46.29 7.148,46.15 7.539,45.503 8.082,44.968 8.741,44.588 Z m 14.265,12.528 c 0.583,-0.811 1.08,-1.666 1.481,-2.556 0.008,-0.015 0.02,-0.026 0.027,-0.042 0.004,-0.008 0.002,-0.017 0.005,-0.025 0.706,-1.588 1.115,-3.279 1.232,-4.993 l 1.249,0 c 0.552,0 1,-0.447 1,-1 0,-0.553 -0.448,-1 -1,-1 l -1.244,0 C 25.629,45.617 25.14,43.746 24.277,41.99 l 1.079,-0.623 c 0.479,-0.276 0.642,-0.888 0.366,-1.366 -0.277,-0.479 -0.89,-0.643 -1.366,-0.366 l -1.089,0.629 c -0.685,-1.021 -1.472,-1.939 -2.352,-2.733 -0.007,-0.007 -0.01,-0.016 -0.017,-0.023 -0.011,-0.01 -0.025,-0.012 -0.036,-0.021 -0.514,-0.46 -1.06,-0.873 -1.626,-1.251 l 0.63,-1.091 c 0.276,-0.479 0.112,-1.09 -0.366,-1.366 -0.48,-0.276 -1.09,-0.113 -1.366,0.366 l -0.624,1.08 C 15.787,34.383 13.913,33.881 12,33.749 L 12,32.5 c 0,-0.553 -0.448,-1 -1,-1 -0.552,0 -1,0.447 -1,1 l 0,1.26 C 7.813,33.905 5.626,34.521 3.604,35.689 3.304,35.862 3.009,36.058 2.715,36.26 2.252,34.245 2,32.152 2,30 2,14.561 14.561,2 30,2 45.439,2 58,14.561 58,30 58,32.002 57.785,33.954 57.383,35.838 55.164,34.308 52.609,33.44 50,33.26 L 50,32 c 0,-0.553 -0.448,-1 -1,-1 -0.552,0 -1,0.447 -1,1 l 0,1.251 c -1.886,0.125 -3.758,0.613 -5.511,1.471 L 41.866,33.643 C 41.59,33.164 40.978,33 40.5,33.277 c -0.479,0.276 -0.642,0.888 -0.366,1.366 l 0.629,1.089 c -1.636,1.097 -2.986,2.473 -4.029,4.031 l -1.09,-0.63 c -0.481,-0.277 -1.089,-0.113 -1.366,0.366 -0.276,0.479 -0.112,1.09 0.366,1.366 l 1.079,0.623 c -0.842,1.723 -1.344,3.597 -1.476,5.51 l -1.247,0 c -0.552,0 -1,0.447 -1,1 0,0.553 0.448,1 1,1 l 1.259,0 c 0.045,0.68 0.13,1.36 0.271,2.036 0.002,0.014 -0.003,0.027 0,0.041 0.002,0.01 0.009,0.019 0.012,0.029 0.315,1.471 0.855,2.919 1.646,4.291 0.323,0.56 0.704,1.102 1.116,1.631 C 34.974,57.658 32.527,58 30,58 27.586,58 25.243,57.693 23.006,57.116 Z M 56.812,38.062 c -0.112,0.374 -0.236,0.743 -0.362,1.11 -0.049,0.141 -0.092,0.283 -0.143,0.423 -0.122,0.336 -0.258,0.665 -0.392,0.995 -0.202,0.491 -0.413,0.978 -0.642,1.455 -0.016,0.034 -0.031,0.069 -0.048,0.103 -0.318,0.657 -0.666,1.296 -1.032,1.923 -1.752,-2.317 -4.847,-3.185 -7.543,-2.141 l -3.147,-5.451 c 1.741,-0.83 3.608,-1.265 5.477,-1.265 2.798,0 5.58,0.916 7.873,2.702 -0.014,0.048 -0.027,0.097 -0.041,0.146 z m -13.63,16.632 c -0.326,0.175 -0.655,0.345 -0.988,0.507 -0.259,0.125 -0.523,0.243 -0.787,0.36 -0.174,0.078 -0.344,0.161 -0.52,0.235 -0.479,0.202 -0.965,0.39 -1.458,0.565 -0.024,0.009 -0.048,0.016 -0.072,0.025 -0.556,-0.634 -1.037,-1.301 -1.435,-1.99 -0.515,-0.892 -0.895,-1.822 -1.175,-2.769 l 6.171,-1.312 c 0.122,0.32 0.263,0.636 0.44,0.942 0.501,0.867 1.205,1.575 2.023,2.123 -0.642,0.424 -1.301,0.826 -1.979,1.197 -0.074,0.041 -0.147,0.079 -0.22,0.117 z m -1.419,-17.229 3.155,5.465 c -1.659,1.335 -2.527,3.375 -2.418,5.43 l -6.179,1.313 c -0.609,-4.66 1.399,-9.434 5.442,-12.208 z m 7.229,6.018 c 1.563,0 3.084,0.81 3.919,2.256 0.035,0.06 0.068,0.122 0.1,0.187 -0.105,0.152 -0.213,0.301 -0.321,0.451 -0.187,0.26 -0.38,0.514 -0.576,0.767 -0.292,0.375 -0.593,0.743 -0.903,1.103 -0.187,0.218 -0.375,0.436 -0.568,0.648 -0.239,0.261 -0.483,0.516 -0.732,0.767 -0.15,0.152 -0.305,0.3 -0.459,0.449 -0.425,0.411 -0.863,0.809 -1.313,1.193 -0.168,0.143 -0.335,0.286 -0.507,0.426 -0.16,0.13 -0.323,0.255 -0.485,0.381 -0.864,-0.387 -1.584,-1.03 -2.059,-1.853 -1.245,-2.157 -0.503,-4.925 1.653,-6.171 0.71,-0.409 1.486,-0.604 2.251,-0.604 z"
           id="path4580"
           inkscape:connector-curvature="0" />
        <path
           d="m 38.692,31.329 c 0.623,-2.321 0.303,-4.747 -0.898,-6.828 -0.228,-0.395 -0.491,-0.761 -0.769,-1.112 l 7.584,-7.584 c 0.912,1.01 1.737,2.125 2.444,3.35 1.732,3 2.638,6.432 2.62,9.924 -0.003,0.552 0.443,1.002 0.995,1.005 10e-4,0 0.003,0 0.005,0 0.55,0 0.997,-0.444 1,-0.995 0.008,-1.597 -0.169,-3.18 -0.504,-4.725 l 2.273,-0.61 c 0.534,-0.143 0.85,-0.691 0.707,-1.225 -0.143,-0.534 -0.692,-0.853 -1.225,-0.707 l -2.269,0.608 c -0.369,-1.168 -0.837,-2.302 -1.4,-3.393 l 2.03,-1.172 c 0.479,-0.276 0.642,-0.888 0.366,-1.366 -0.276,-0.479 -0.889,-0.644 -1.366,-0.366 l -2.045,1.181 c -0.67,-1.047 -1.406,-2.029 -2.219,-2.921 l 1.657,-1.657 c 0.391,-0.391 0.391,-1.023 0,-1.414 -0.391,-0.391 -1.023,-0.391 -1.414,0 l -1.653,1.653 C 43.698,12.143 42.717,11.407 41.69,10.752 L 42.866,8.716 C 43.142,8.237 42.979,7.626 42.5,7.35 42.021,7.073 41.409,7.237 41.134,7.716 L 39.955,9.758 C 38.864,9.196 37.73,8.735 36.564,8.365 L 37.177,6.077 C 37.32,5.544 37.003,4.995 36.47,4.852 35.933,4.705 35.388,5.026 35.245,5.559 L 34.632,7.847 C 33.439,7.584 32.226,7.417 31,7.358 L 31,5 C 31,4.447 30.552,4 30,4 29.448,4 29,4.447 29,5 l 0,2.352 C 27.783,7.406 26.566,7.553 25.359,7.817 L 24.754,5.559 C 24.611,5.026 24.066,4.705 23.529,4.852 22.996,4.995 22.679,5.543 22.822,6.077 L 23.428,8.34 C 22.277,8.706 21.15,9.189 20.045,9.76 L 18.865,7.716 C 18.589,7.236 17.978,7.072 17.5,7.35 17.021,7.626 16.858,8.238 17.134,8.716 l 1.172,2.029 c -1.04,0.667 -2.012,1.415 -2.91,2.237 l -1.66,-1.66 c -0.391,-0.391 -1.023,-0.391 -1.414,0 -0.391,0.391 -0.391,1.023 0,1.414 l 1.664,1.664 c -0.825,0.909 -1.57,1.883 -2.228,2.913 L 9.715,16.134 C 9.235,15.857 8.625,16.021 8.349,16.5 8.073,16.979 8.237,17.59 8.715,17.866 l 2.045,1.181 C 10.2,20.132 9.73,21.265 9.357,22.434 L 7.076,21.822 c -0.531,-0.145 -1.082,0.174 -1.225,0.707 -0.143,0.533 0.173,1.082 0.707,1.225 l 2.281,0.612 c -0.338,1.535 -0.521,3.115 -0.516,4.721 10e-4,0.552 0.449,0.997 1,0.997 10e-4,0 0.002,0 0.003,0 0.552,-0.002 0.999,-0.451 0.997,-1.003 -0.015,-4.964 1.852,-9.68 5.076,-13.267 l 7.57,7.57 c -0.765,0.957 -1.336,2.067 -1.663,3.287 -0.623,2.321 -0.303,4.747 0.898,6.828 1.202,2.082 3.143,3.571 5.464,4.193 0.775,0.207 1.562,0.311 2.344,0.311 1.559,-10e-4 3.098,-0.409 4.485,-1.21 2.084,-1.201 3.573,-3.142 4.195,-5.464 z M 25.5,21.207 c -0.395,0.228 -0.76,0.49 -1.111,0.768 L 16.81,14.396 c 1.017,-0.922 2.132,-1.748 3.345,-2.448 7.573,-4.373 16.868,-3.118 23.037,2.445 l -7.577,7.577 c -0.957,-0.765 -2.067,-1.336 -3.286,-1.663 -2.323,-0.619 -4.746,-0.302 -6.829,0.9 z m 2.688,14.553 c -1.806,-0.483 -3.315,-1.642 -4.25,-3.261 -0.935,-1.619 -1.183,-3.505 -0.699,-5.311 0.484,-1.806 1.642,-3.314 3.261,-4.249 1.079,-0.623 2.275,-0.941 3.488,-0.941 0.608,0 1.22,0.08 1.823,0.242 1.806,0.483 3.315,1.642 4.25,3.261 0.935,1.619 1.183,3.505 0.699,5.311 -0.484,1.806 -1.642,3.314 -3.261,4.249 -1.619,0.935 -3.503,1.186 -5.311,0.699 z"
           id="path4582"
           inkscape:connector-curvature="0" />
      </g>
    </symbol>
    <symbol
       id="settings-2"
       viewBox="0 0 60 60">
      <g
         id="g4585">
        <path
           d="m 29.988,38 c 3.86,0 7,-3.141 7,-7 0,-3.859 -3.14,-7 -7,-7 -3.86,0 -7,3.141 -7,7 0,3.859 3.14,7 7,7 z m 0,-12 c 2.757,0 5,2.243 5,5 0,2.757 -2.243,5 -5,5 -2.757,0 -5,-2.243 -5,-5 0,-2.757 2.243,-5 5,-5 z"
           id="path4587"
           inkscape:connector-curvature="0" />
        <circle
           cx="29.988001"
           cy="31"
           r="1"
           id="circle4589" />
        <path
           d="m 0,0 0,38.607 0,10.264 0,8.258 0,2.871 2.343,0 11.313,0 8.724,0 15.24,0 8.724,0 11.313,0 L 60,60 60,57.129 60,48.871 60,38.607 60,0 0,0 Z M 37.351,2 C 36.968,2.056 36.635,2.332 36.529,2.729 L 35.728,5.718 C 34.185,5.349 32.605,5.124 31,5.052 L 31,2 37.351,2 Z M 29,5.046 C 27.386,5.108 25.796,5.329 24.244,5.699 L 23.448,2.729 C 23.342,2.333 23.009,2.057 22.628,2 L 29,2 29,5.046 Z M 22.572,2 C 22.458,1.99 22.341,1.991 22.224,2.022 21.69,2.165 21.374,2.713 21.517,3.247 l 0.802,2.994 C 20.802,6.733 19.334,7.359 17.932,8.118 L 16.355,5.386 C 16.079,4.907 15.466,4.742 14.989,5.02 14.51,5.296 14.347,5.908 14.623,6.386 l 1.589,2.751 c -1.336,0.857 -2.599,1.825 -3.767,2.904 L 10.191,9.787 C 9.8,9.396 9.168,9.396 8.777,9.787 c -0.391,0.391 -0.391,1.023 0,1.414 l 2.253,2.253 c -1.084,1.16 -2.074,2.409 -2.939,3.748 L 5.376,15.634 C 4.895,15.356 4.284,15.521 4.007,16 3.731,16.479 3.895,17.09 4.373,17.366 l 2.7,1.559 C 6.418,20.132 5.864,21.396 5.407,22.705 5.35,22.786 5.292,22.867 5.26,22.966 5.238,23.033 5.244,23.1 5.237,23.167 4.99,23.922 4.772,24.689 4.598,25.472 c -0.12,0.539 0.219,1.073 0.758,1.193 0.543,0.123 1.074,-0.218 1.194,-0.758 0.102,-0.458 0.237,-0.904 0.366,-1.352 l 13.252,4.306 c 0.103,0.033 0.207,0.049 0.309,0.049 0.422,0 0.814,-0.269 0.951,-0.691 0.17,-0.524 -0.117,-1.089 -0.642,-1.26 L 7.553,22.659 C 10.954,13.814 19.563,7.437 29,7.046 L 29,21 c 0,0.553 0.448,1 1,1 0.552,0 1,-0.447 1,-1 L 31,7.053 c 9.505,0.458 18.113,6.83 21.457,15.594 l -13.268,4.312 c -0.525,0.171 -0.813,0.735 -0.642,1.26 0.137,0.423 0.529,0.691 0.951,0.691 0.102,0 0.207,-0.016 0.309,-0.049 l 13.28,-4.315 c 0.131,0.461 0.265,0.921 0.367,1.393 0.101,0.469 0.515,0.79 0.977,0.79 0.069,0 0.14,-0.007 0.211,-0.022 0.54,-0.115 0.884,-0.647 0.768,-1.188 -0.181,-0.843 -0.418,-1.666 -0.684,-2.477 -0.006,-0.026 -10e-4,-0.052 -0.009,-0.077 -0.012,-0.036 -0.038,-0.061 -0.053,-0.094 -0.463,-1.375 -1.042,-2.699 -1.729,-3.964 l 2.669,-1.541 C 56.083,17.09 56.246,16.478 55.97,16 55.694,15.521 55.083,15.356 54.604,15.634 l -2.688,1.552 C 51.049,15.849 50.055,14.6 48.963,13.441 l 2.239,-2.239 c 0.391,-0.391 0.391,-1.023 0,-1.414 -0.391,-0.391 -1.023,-0.391 -1.414,0 l -2.246,2.246 C 46.371,10.961 45.105,9.997 43.764,9.143 L 45.355,6.387 C 45.631,5.908 45.467,5.297 44.989,5.021 44.51,4.744 43.899,4.909 43.623,5.387 L 42.039,8.13 C 40.638,7.378 39.171,6.753 37.653,6.262 L 38.461,3.249 C 38.604,2.716 38.288,2.167 37.754,2.024 37.632,1.99 37.51,1.988 37.392,2 L 58,2 58,38.325 C 56.692,37.865 55.712,36.74 55.492,35.31 L 54.983,32 48.799,32 48.06,35.842 c -0.248,1.286 -1.084,2.313 -2.294,2.813 -1.21,0.501 -2.527,0.367 -3.613,-0.367 l -3.239,-2.193 -4.372,4.372 1.98,2.701 c 0.781,1.064 0.959,2.434 0.477,3.662 -0.482,1.229 -1.544,2.112 -2.841,2.361 L 31,49.799 l 0,6.184 3.31,0.51 c 1.027,0.158 1.899,0.708 2.485,1.508 l -13.59,0 c 0.586,-0.799 1.459,-1.349 2.486,-1.508 l 3.31,-0.51 0,-6.184 -3.157,-0.607 C 24.547,48.943 23.485,48.06 23.003,46.831 22.521,45.602 22.699,44.233 23.48,43.169 l 1.981,-2.701 -4.373,-4.372 -3.239,2.193 c -1.084,0.736 -2.401,0.87 -3.612,0.368 C 13.026,38.155 12.19,37.13 11.942,35.843 L 11.201,32 5.017,32 4.508,35.31 C 4.288,36.741 3.308,37.865 2,38.325 L 2,2 22.572,2 Z M 3.112,58 C 2.679,57.578 2.307,57.109 2,56.602 L 2,49.398 C 3.264,47.296 5.541,46 8,46 c 3.86,0 7,3.141 7,7 0,1.882 -0.766,3.684 -2.113,5 L 3.112,58 Z M 15.46,58 C 16.447,56.531 17,54.797 17,53 17,48.037 12.962,44 8,44 5.748,44 3.628,44.86 2,46.322 L 2,40.416 C 4.326,39.9 6.112,38.034 6.484,35.614 L 6.733,34 l 2.816,0 0.427,2.219 c 0.371,1.931 1.677,3.533 3.494,4.285 1.816,0.753 3.873,0.543 5.499,-0.56 l 1.872,-1.268 1.991,1.991 -0.965,1.316 c -1.189,1.621 -1.46,3.706 -0.726,5.576 0.734,1.872 2.351,3.216 4.325,3.596 l 1.534,0.296 0,2.816 -1.614,0.248 c -2.037,0.313 -3.694,1.622 -4.476,3.484 l -5.45,0 z M 34.614,54.516 33,54.268 l 0,-2.816 1.535,-0.295 c 1.974,-0.38 3.591,-1.724 4.325,-3.596 0.734,-1.87 0.463,-3.955 -0.726,-5.575 l -0.966,-1.317 1.991,-1.991 1.871,1.268 c 1.628,1.103 3.685,1.311 5.5,0.559 1.816,-0.752 3.122,-2.354 3.493,-4.284 L 50.451,34 l 2.816,0 0.249,1.614 c 0.372,2.42 2.159,4.286 4.484,4.802 l 0,5.906 C 56.372,44.86 54.252,44 52,44 c -4.962,0 -9,4.037 -9,9 0,1.797 0.552,3.531 1.539,5 L 39.09,58 C 38.308,56.137 36.651,54.828 34.614,54.516 Z M 47.113,58 C 45.766,56.684 45,54.882 45,53 c 0,-3.859 3.14,-7 7,-7 2.459,0 4.735,1.296 6,3.397 l 0,7.205 c -0.306,0.507 -0.678,0.976 -1.112,1.397 l -9.775,0 z"
           id="path4591"
           inkscape:connector-curvature="0" />
      </g>
    </symbol>
    <symbol
       id="settings-6"
       viewBox="0 0 54 54">
      <g
         id="g4617">
        <path
           d="m 27,13 c -7.72,0 -14,6.28 -14,14 0,7.72 6.28,14 14,14 7.72,0 14,-6.28 14,-14 0,-7.72 -6.28,-14 -14,-14 z m 0,26 c -6.617,0 -12,-5.383 -12,-12 0,-6.617 5.383,-12 12,-12 6.617,0 12,5.383 12,12 0,6.617 -5.383,12 -12,12 z"
           id="path4619"
           inkscape:connector-curvature="0" />
        <path
           d="m 51.22,21 -2.018,0 c -0.515,-1.912 -1.272,-3.742 -2.26,-5.457 l 1.426,-1.426 c 0.525,-0.525 0.814,-1.224 0.814,-1.966 0,-0.743 -0.289,-1.441 -0.814,-1.967 L 43.815,5.631 c -1.05,-1.049 -2.881,-1.051 -3.933,0 L 38.456,7.057 C 36.74,6.07 34.911,5.313 33,4.798 L 33,2.78 C 33,1.247 31.753,0 30.22,0 L 23.78,0 C 22.247,0 21,1.247 21,2.78 l 0,2.018 C 19.089,5.313 17.26,6.07 15.543,7.058 L 14.117,5.632 c -1.051,-1.052 -2.883,-1.05 -3.933,0 l -4.553,4.553 c -0.525,0.525 -0.814,1.224 -0.814,1.967 0,0.742 0.289,1.44 0.814,1.966 l 1.426,1.426 C 6.07,17.258 5.312,19.088 4.798,21 L 2.78,21 C 1.247,21 0,22.247 0,23.78 l 0,6.439 C 0,31.753 1.247,33 2.78,33 l 2.018,0 c 0.515,1.911 1.272,3.74 2.26,5.457 l -1.426,1.426 c -0.525,0.525 -0.814,1.224 -0.814,1.966 0,0.743 0.289,1.441 0.814,1.967 l 4.553,4.553 c 1.05,1.051 2.882,1.052 3.933,0 l 1.426,-1.426 c 1.717,0.987 3.546,1.745 5.457,2.26 l 0,2.018 c 0,1.533 1.247,2.78 2.78,2.78 l 6.439,0 c 1.533,0 2.78,-1.247 2.78,-2.78 l 0,-2.018 c 1.911,-0.515 3.74,-1.272 5.457,-2.26 l 1.426,1.426 c 1.052,1.052 2.882,1.05 3.933,0 l 4.553,-4.553 c 0.525,-0.525 0.814,-1.224 0.814,-1.967 0,-0.742 -0.289,-1.44 -0.814,-1.966 L 46.943,38.457 C 47.93,36.74 48.688,34.911 49.203,33 l 2.018,0 c 1.533,0 2.78,-1.247 2.78,-2.78 l 0,-6.44 C 54,22.247 52.753,21 51.22,21 Z M 52,30.22 C 52,30.65 51.65,31 51.22,31 l -3.592,0 -0.18,0.773 c -0.521,2.237 -1.399,4.36 -2.613,6.311 l -0.42,0.674 2.539,2.539 c 0.305,0.305 0.305,0.8 0,1.104 l -4.553,4.553 c -0.304,0.304 -0.799,0.306 -1.104,0 l -2.539,-2.539 -0.674,0.42 c -1.95,1.214 -4.073,2.093 -6.311,2.613 L 31,47.628 31,51.22 C 31,51.65 30.65,52 30.22,52 l -6.44,0 C 23.35,52 23,51.65 23,51.22 l 0,-3.592 -0.773,-0.18 c -2.237,-0.521 -4.36,-1.399 -6.311,-2.613 l -0.674,-0.42 -2.539,2.539 c -0.306,0.306 -0.801,0.304 -1.104,0 L 7.046,42.401 c -0.305,-0.305 -0.305,-0.8 0,-1.104 L 9.585,38.758 9.165,38.084 C 7.951,36.134 7.072,34.011 6.552,31.773 L 6.372,31 2.78,31 C 2.35,31 2,30.65 2,30.22 L 2,23.78 C 2,23.35 2.35,23 2.78,23 l 3.592,0 0.18,-0.773 c 0.521,-2.238 1.399,-4.361 2.613,-6.311 l 0.42,-0.674 -2.539,-2.539 c -0.305,-0.305 -0.305,-0.8 0,-1.104 l 4.553,-4.553 c 0.304,-0.304 0.799,-0.306 1.104,0 l 2.539,2.539 0.674,-0.42 c 1.95,-1.214 4.073,-2.093 6.311,-2.613 L 23,6.372 23,2.78 C 23,2.35 23.35,2 23.78,2 l 6.439,0 C 30.65,2 31,2.35 31,2.78 l 0,3.592 0.773,0.18 c 2.237,0.521 4.36,1.399 6.311,2.613 l 0.674,0.42 2.539,-2.539 c 0.306,-0.306 0.801,-0.304 1.104,0 l 4.553,4.553 c 0.305,0.305 0.305,0.8 0,1.104 l -2.539,2.539 0.42,0.674 c 1.214,1.949 2.093,4.072 2.613,6.311 l 0.18,0.773 3.592,0 c 0.43,0 0.78,0.35 0.78,0.78 l 0,6.44 z"
           id="path4621"
           inkscape:connector-curvature="0" />
        <path
           d="m 27,17 c -5.514,0 -10,4.486 -10,10 0,5.514 4.486,10 10,10 5.514,0 10,-4.486 10,-10 0,-5.514 -4.486,-10 -10,-10 z m 0,18 c -4.411,0 -8,-3.589 -8,-8 0,-4.411 3.589,-8 8,-8 4.411,0 8,3.589 8,8 0,4.411 -3.589,8 -8,8 z"
           id="path4623"
           inkscape:connector-curvature="0" />
      </g>
    </symbol>
    <symbol
       id="basic_smartphone"
       viewBox="0 0 64 64">
      <g
         id="g2453">
        <rect
           x="16"
           y="1"
           stroke-miterlimit="10"
           width="32"
           height="62"
           id="rect2455"
           style="fill:none;stroke:#000000;stroke-width:2;stroke-miterlimit:10" />
        <line
           stroke-miterlimit="10"
           x1="28"
           y1="5"
           x2="36"
           y2="5"
           id="line2457"
           style="fill:none;stroke:#000000;stroke-width:2;stroke-miterlimit:10" />
        <line
           stroke-miterlimit="10"
           x1="16"
           y1="51"
           x2="48"
           y2="51"
           id="line2459"
           style="fill:none;stroke:#000000;stroke-width:2;stroke-miterlimit:10" />
        <line
           stroke-miterlimit="10"
           x1="16"
           y1="9"
           x2="48"
           y2="9"
           id="line2461"
           style="fill:none;stroke:#000000;stroke-width:2;stroke-miterlimit:10" />
        <circle
           stroke-miterlimit="10"
           cx="32"
           cy="57"
           r="2"
           id="circle2463"
           style="fill:none;stroke:#000000;stroke-width:2;stroke-linejoin:bevel;stroke-miterlimit:10" />
      </g>
    </symbol>
    <symbol
       id="symbol20558">
      <title
         id="title20560">TV</title>
      <path
         d="M 42,6 6,6 C 3.79,6 2,7.79 2,10 l 0,24 c 0,2.21 1.79,4 4,4 l 10,0 0,4 16,0 0,-4 10,0 c 2.21,0 3.98,-1.79 3.98,-4 L 46,10 C 46,7.79 44.21,6 42,6 Z m 0,28 -36,0 0,-24 36,0 0,24 z"
         style="stroke:none"
         id="path20562"
         inkscape:connector-curvature="0" />
    </symbol>
    <symbol
       id="symbol20528">
      <title
         id="title20530">Smartphone</title>
      <path
         d="M 34,2.02 14,2 c -2.21,0 -4,1.79 -4,4 l 0,36 c 0,2.21 1.79,4 4,4 l 20,0 c 2.21,0 4,-1.79 4,-4 L 38,6 C 38,3.79 36.21,2.02 34,2.02 Z m 0,35.98 -20,0 0,-28 20,0 0,28 z"
         style="stroke:none"
         id="path20532"
         inkscape:connector-curvature="0" />
    </symbol>
    <symbol
       id="symbol20456">
      <title
         id="title20458">Laptop</title>
      <path
         d="m 40,36 c 2.2,0 4,-1.8 4,-4 L 44,12 C 44,9.8 42.2,8 40,8 L 8,8 C 5.8,8 4,9.8 4,12 l 0,20 c 0,2.2 1.8,4 4,4 l -8,0 0,4 48,0 0,-4 -8,0 z M 8,12 40,12 40,32 8,32 8,12 Z"
         style="stroke:none"
         id="path20460"
         inkscape:connector-curvature="0" />
    </symbol>
    <symbol
       id="g48870">
      <g
         id="g48720">
        <g
           id="g48703"
           transform="matrix(0.74532539,0,0,0.77500213,30.619949,-2.0605232)"
           style="fill:#ffffff;stroke:#000000;stroke-width:3.38288903;stroke-miterlimit:4;stroke-dasharray:none;stroke-opacity:1">
          <path
             id="path48701"
             d="m 361.39659,-27.2914 c 6.16504,0 11.20916,-5.04412 11.20916,-11.209155 l 0,-56.045772 c 0,-6.165033 -5.04412,-11.209153 -11.20916,-11.209153 l -89.67323,0 c -6.16504,0 -11.20916,5.04412 -11.20916,11.209153 l 0,56.045772 c 0,6.165035 5.04412,11.209155 11.20916,11.209155 l -22.41831,0 0,11.209154 134.50985,0 0,-11.209154 -22.41831,0 z"
             style="fill:#ffffff;stroke:#000000;stroke-width:3.38288903;stroke-miterlimit:4;stroke-dasharray:none;stroke-opacity:1"
             inkscape:connector-curvature="0" />
          <path
             id="path48696"
             d="m 271.72336,-94.546327 89.67323,0 0,56.045772 -89.67323,0 0,-56.045772 z"
             style="fill:#ffffff;stroke:#000000;stroke-width:3.38288903;stroke-miterlimit:4;stroke-dasharray:none;stroke-opacity:1"
             inkscape:connector-curvature="0" />
        </g>
        <g
           id="g48715"
           transform="matrix(0.64141488,0,0,0.64281284,91.925317,9.158425)"
           style="fill:#ffffff">
          <g
             style="fill:#ffffff;stroke:#000000;stroke-width:6.03536177;stroke-miterlimit:4;stroke-dasharray:none;stroke-opacity:1"
             transform="matrix(0.46564601,0,0,0.46564601,297.80777,-6.7578781)"
             id="g48711">
            <path
               inkscape:connector-curvature="0"
               style="fill:#ffffff;stroke:#000000;stroke-width:6.03536177;stroke-miterlimit:4;stroke-dasharray:none;stroke-opacity:1"
               d="m 148.25527,-188.96102 -57.723726,-0.0576 c -6.378472,0 -11.544748,5.16624 -11.544748,11.54474 l 0,103.90274 c 0,6.378439 5.166276,11.544743 11.544748,11.544743 l 57.723726,0 c 6.37846,0 11.54475,-5.166304 11.54475,-11.544743 l 0,-103.90274 c 0,-6.3785 -5.16629,-11.48699 -11.54475,-11.48699 z"
               id="path48709" />
            <path
               inkscape:connector-curvature="0"
               style="fill:#ffffff;stroke:#000000;stroke-width:6.03536177;stroke-miterlimit:4;stroke-dasharray:none;stroke-opacity:1"
               d="m 148.25527,-85.116032 -57.723726,0 0,-80.813258 57.723726,0 0,80.813258 z"
               id="path48636" />
          </g>
        </g>
      </g>
    </symbol>
    <symbol
       id="basic_gear"
       viewBox="0 0 64 64">
      <g
         id="g1651">
        <polygon
           stroke-miterlimit="10"
           points="14,6 6,14 12,20 10,26 1,26 1,38 10,38 12,44 6,50 14,58 20,52 26,54 26,63 32,63 38,63 38,54 44,52 50,58 58,50 52,44 54,38 63,38 63,26 54,26 52,20 58,14 50,6 44,12 38,10 38,1 32,1 26,1 26,10 20,12 "
           id="polygon1653"
           style="fill:none;stroke:#000000;stroke-width:2;stroke-miterlimit:10" />
        <circle
           stroke-miterlimit="10"
           cx="32"
           cy="32"
           r="6"
           id="circle1655"
           style="fill:none;stroke:#000000;stroke-width:2;stroke-miterlimit:10" />
      </g>
    </symbol>
  </defs>
  <sodipodi:namedview
     id="base"
     pagecolor="#ffffff"
     bordercolor="#666666"
     borderopacity="1.0"
     inkscape:pageopacity="0.0"
     inkscape:pageshadow="2"
     inkscape:zoom="0.6692357"
     inkscape:cx="297.26991"
     inkscape:cy="571.91027"
     inkscape:document-units="px"
     inkscape:current-layer="layer1"
     showgrid="false"
     showguides="false"
     inkscape:guide-bbox="true"
     inkscape:object-paths="false"
     inkscape:snap-midpoints="false"
     inkscape:snap-center="false"
     inkscape:snap-object-midpoints="false"
     inkscape:snap-nodes="true"
     inkscape:window-width="1366"
     inkscape:window-height="705"
     inkscape:window-x="-8"
     inkscape:window-y="-8"
     inkscape:window-maximized="1"
     fit-margin-left="2.4">
    <sodipodi:guide
       position="393.73274,501.31816"
       orientation="0,1"
       id="guide42597" />
    <sodipodi:guide
       position="385.51441,301.83686"
       orientation="0,1"
       id="guide42599" />
    <sodipodi:guide
       position="567.91636,577.42566"
       orientation="1,0"
       id="guide42666" />
    <sodipodi:guide
       position="122.56427,501.31816"
       orientation="1,0"
       id="guide42668" />
    <sodipodi:guide
       position="1524.1267,1037.3774"
       orientation="0,1"
       id="guide48658" />
    <sodipodi:guide
       position="420.52225,577.42566"
       orientation="0,1"
       id="guide49823" />
    <sodipodi:guide
       position="341.43427,481.89301"
       orientation="0,1"
       id="guide49825" />
    <sodipodi:guide
       position="233.10173,389.99714"
       orientation="1,0"
       id="guide49827" />
    <sodipodi:guide
       position="290.63005,399.70971"
       orientation="1,0"
       id="guide49829" />
    <sodipodi:guide
       position="399.39048,577.42566"
       orientation="1,0"
       id="guide49837" />
    <sodipodi:guide
       position="457.50285,565.27489"
       orientation="1,0"
       id="guide49839" />
  </sodipodi:namedview>
  <metadata
     id="metadata5256">
    <rdf:RDF>
      <cc:Work
         rdf:about="">
        <dc:format>image/svg+xml</dc:format>
        <dc:type
           rdf:resource="http://purl.org/dc/dcmitype/StillImage" />
        <dc:title></dc:title>
      </cc:Work>
    </rdf:RDF>
  </metadata>
  <g
     inkscape:label="Layer 1"
     inkscape:groupmode="layer"
     id="layer1">
    <g
       id="g24009">
      <use
         inkscape:export-ydpi="1150.1526"
         inkscape:export-xdpi="1150.1526"
         transform="matrix(0.06730368,0,0,0.06750671,504.41377,389.14454)"
         height="100%"
         width="100%"
         y="0"
         x="0"
         xlink:href="#basic_pencil_ruler_pen"
         style="visibility:hidden;fill:#ff0000;stroke:#ff0000"
         id="use38925" />
    </g>
    <text
       sodipodi:linespacing="125%"
       id="text42640"
       y="535.35449"
       x="310.80231"
       style="font-style:normal;font-variant:normal;font-weight:normal;font-stretch:normal;font-size:70px;line-height:125%;font-family:'Arima Madurai';-inkscape-font-specification:'Arima Madurai, Normal';text-align:start;letter-spacing:0px;word-spacing:0px;writing-mode:lr-tb;text-anchor:start;visibility:hidden;fill:#000000;fill-opacity:1;stroke:none;stroke-width:1px;stroke-linecap:butt;stroke-linejoin:miter;stroke-opacity:1"
       xml:space="preserve"><tspan
         y="535.35449"
         x="310.80231"
         id="tspan42644"
         sodipodi:role="line" /></text>
    <flowRoot
       style="font-style:normal;font-weight:normal;font-size:70px;line-height:125%;font-family:sans-serif;letter-spacing:0px;word-spacing:0px;visibility:hidden;fill:#000000;fill-opacity:1;stroke:none;stroke-width:1px;stroke-linecap:butt;stroke-linejoin:miter;stroke-opacity:1"
       id="flowRoot42646"
       xml:space="preserve"
       transform="matrix(3.8894467,0,0,3.8894467,52.310604,467.46981)"><flowRegion
         id="flowRegion42648"><rect
           y="535.35449"
           x="310.80231"
           height="103.10269"
           width="7.4712095"
           id="rect42650" /></flowRegion><flowPara
         id="flowPara42652" /></flowRoot>    <text
       sodipodi:linespacing="125%"
       id="text42662"
       y="619.03204"
       x="599.19098"
       style="font-style:normal;font-weight:normal;font-size:70px;line-height:125%;font-family:sans-serif;letter-spacing:0px;word-spacing:0px;visibility:hidden;fill:#000000;fill-opacity:1;stroke:none;stroke-width:1px;stroke-linecap:butt;stroke-linejoin:miter;stroke-opacity:1"
       xml:space="preserve"><tspan
         y="619.03204"
         x="599.19098"
         id="tspan42664"
         sodipodi:role="line" /></text>
    <flowRoot
       transform="translate(-315.28503,43.333037)"
       style="font-style:normal;font-weight:normal;font-size:11.25px;line-height:125%;font-family:sans-serif;letter-spacing:0px;word-spacing:0px;visibility:hidden;fill:#000000;fill-opacity:1;stroke:none;stroke-width:1px;stroke-linecap:butt;stroke-linejoin:miter;stroke-opacity:1"
       id="flowRoot42858"
       xml:space="preserve"><flowRegion
         id="flowRegion42860"><rect
           rx="0"
           ry="0"
           style="font-size:11.25px"
           y="532.36603"
           x="451.26105"
           height="84.218658"
           width="90.967499"
           id="rect42862" /></flowRegion><flowPara
         style="font-size:13.75px"
         id="flowPara42864" /></flowRoot>    <g
       style="visibility:hidden"
       transform="matrix(3.8894467,0,0,3.8894467,50.069241,467.46981)"
       id="g43344">
      <rect
         y="26.86594"
         x="18.939991"
         height="30.734285"
         width="27.779942"
         id="rect42786"
         style="fill:none;fill-rule:evenodd;stroke:#000000;stroke-width:0.43708017;stroke-linecap:butt;stroke-linejoin:miter;stroke-miterlimit:4;stroke-dasharray:none;stroke-opacity:1" />
      <flowRoot
         transform="translate(5.9421061,4.6840537)"
         xml:space="preserve"
         id="flowRoot43217"
         style="font-style:normal;font-weight:normal;font-size:2.89244223px;line-height:125%;font-family:sans-serif;letter-spacing:0px;word-spacing:0px;fill:#000000;fill-opacity:1;stroke:none;stroke-width:1px;stroke-linecap:butt;stroke-linejoin:miter;stroke-opacity:1"><flowRegion
           id="flowRegion43219"><rect
             id="rect43221"
             width="24.203251"
             height="32.655155"
             x="15.364019"
             y="26.673849"
             style="font-size:2.89244223px"
             ry="0"
             rx="0" /></flowRegion><flowPara
           id="flowPara43223">amar lrem ipsu kdoc amar lrem ipsu kdoc amar lrem ipsu kdoc amar lrem ipsu kdoc </flowPara></flowRoot>    </g>
    <g
       style="visibility:hidden"
       transform="matrix(3.8894467,0,0,3.8894467,53.895487,467.46981)"
       id="g43323">
      <rect
         style="fill:none;fill-rule:evenodd;stroke:#000000;stroke-width:0.43708017;stroke-linecap:butt;stroke-linejoin:miter;stroke-miterlimit:4;stroke-dasharray:none;stroke-opacity:1"
         id="rect43283"
         width="27.779942"
         height="30.734285"
         x="104.03552"
         y="26.86594" />
      <flowRoot
         style="font-style:normal;font-weight:normal;font-size:2.89244223px;line-height:125%;font-family:sans-serif;letter-spacing:0px;word-spacing:0px;fill:#000000;fill-opacity:1;stroke:none;stroke-width:1px;stroke-linecap:butt;stroke-linejoin:miter;stroke-opacity:1"
         id="flowRoot43285"
         xml:space="preserve"
         transform="translate(91.03764,4.6840537)"><flowRegion
           id="flowRegion43287"><rect
             rx="0"
             ry="0"
             style="font-size:2.89244223px"
             y="26.673849"
             x="15.364019"
             height="32.655155"
             width="24.203251"
             id="rect43289" /></flowRegion><flowPara
           id="flowPara43291">amar lrem ipsu kdoc amar lrem ipsu kdoc amar lrem ipsu kdoc amar lrem ipsu kdoc </flowPara></flowRoot>    </g>
    <g
       style="visibility:hidden"
       transform="matrix(3.8894467,0,0,3.8894467,51.750263,467.46981)"
       id="g43330">
      <rect
         y="26.86594"
         x="61.487762"
         height="30.734285"
         width="27.779942"
         id="rect43299"
         style="fill:none;fill-rule:evenodd;stroke:#000000;stroke-width:0.43708017;stroke-linecap:butt;stroke-linejoin:miter;stroke-miterlimit:4;stroke-dasharray:none;stroke-opacity:1" />
      <flowRoot
         transform="translate(48.489878,4.6840537)"
         xml:space="preserve"
         id="flowRoot43301"
         style="font-style:normal;font-weight:normal;font-size:2.89244223px;line-height:125%;font-family:sans-serif;letter-spacing:0px;word-spacing:0px;fill:#000000;fill-opacity:1;stroke:none;stroke-width:1px;stroke-linecap:butt;stroke-linejoin:miter;stroke-opacity:1"><flowRegion
           id="flowRegion43303"><rect
             id="rect43305"
             width="24.203251"
             height="32.655155"
             x="15.364019"
             y="26.673849"
             style="font-size:2.89244223px"
             ry="0"
             rx="0" /></flowRegion><flowPara
           id="flowPara43307">amar lrem ipsu kdoc amar lrem ipsu kdoc amar lrem ipsu kdoc amar lrem ipsu kdoc </flowPara></flowRoot>    </g>
    <g
       id="g24051">
      <g
         transform="matrix(0.66083657,0,0,0.68277729,172.76092,420.73428)"
         id="g24027"
         style="visibility:hidden;fill:#ff6347">
        <g
           style="fill:#ffffff;stroke:#000000;stroke-width:3.38288903;stroke-miterlimit:4;stroke-dasharray:none;stroke-opacity:1"
           transform="matrix(0.74532539,0,0,0.77500213,30.619949,-2.0605232)"
           id="g24029">
          <path
             inkscape:connector-curvature="0"
             style="fill:#ffffff;stroke:#000000;stroke-width:3.38288903;stroke-miterlimit:4;stroke-dasharray:none;stroke-opacity:1"
             d="m 361.39659,-27.2914 c 6.16504,0 11.20916,-5.04412 11.20916,-11.209155 l 0,-56.045772 c 0,-6.165033 -5.04412,-11.209153 -11.20916,-11.209153 l -89.67323,0 c -6.16504,0 -11.20916,5.04412 -11.20916,11.209153 l 0,56.045772 c 0,6.165035 5.04412,11.209155 11.20916,11.209155 l -22.41831,0 0,11.209154 134.50985,0 0,-11.209154 -22.41831,0 z"
             id="path24031" />
          <path
             inkscape:connector-curvature="0"
             style="fill:#ffffff;stroke:#000000;stroke-width:3.38288903;stroke-miterlimit:4;stroke-dasharray:none;stroke-opacity:1"
             d="m 271.72336,-94.546327 89.67323,0 0,56.045772 -89.67323,0 0,-56.045772 z"
             id="path24033" />
        </g>
        <g
           style="fill:#ffffff"
           transform="matrix(0.64141488,0,0,0.64281284,91.925317,9.158425)"
           id="g24035">
          <g
             id="g24037"
             transform="matrix(0.46564601,0,0,0.46564601,297.80777,-6.7578781)"
             style="fill:#ffffff;stroke:#000000;stroke-width:6.03536177;stroke-miterlimit:4;stroke-dasharray:none;stroke-opacity:1">
            <path
               id="path24039"
               d="m 148.25527,-188.96102 -57.723726,-0.0576 c -6.378472,0 -11.544748,5.16624 -11.544748,11.54474 l 0,103.90274 c 0,6.378439 5.166276,11.544743 11.544748,11.544743 l 57.723726,0 c 6.37846,0 11.54475,-5.166304 11.54475,-11.544743 l 0,-103.90274 c 0,-6.3785 -5.16629,-11.48699 -11.54475,-11.48699 z"
               style="fill:#ffffff;stroke:#000000;stroke-width:6.03536177;stroke-miterlimit:4;stroke-dasharray:none;stroke-opacity:1"
               inkscape:connector-curvature="0" />
            <path
               id="path24041"
               d="m 148.25527,-85.116032 -57.723726,0 0,-80.813258 57.723726,0 0,80.813258 z"
               style="fill:#ffffff;stroke:#000000;stroke-width:6.03536177;stroke-miterlimit:4;stroke-dasharray:none;stroke-opacity:1"
               inkscape:connector-curvature="0" />
          </g>
        </g>
      </g>
    </g>
    <rect
       y="624.26196"
       x="232.35461"
       height="20.919384"
       width="57.52832"
       id="rect49831"
       style="visibility:hidden;fill:#0000ff;fill-rule:evenodd;stroke:#000000;stroke-width:1px;stroke-linecap:butt;stroke-linejoin:miter;stroke-opacity:1" />
    <rect
       style="visibility:hidden;fill:#0000ff;fill-rule:evenodd;stroke:#000000;stroke-width:1px;stroke-linecap:butt;stroke-linejoin:miter;stroke-opacity:1"
       id="rect49833"
       width="57.52832"
       height="20.919384"
       x="400.08325"
       y="624.26196" />
    <rect
       y="624.26196"
       x="565.94409"
       height="20.919384"
       width="57.52832"
       id="rect49835"
       style="visibility:hidden;fill:#0000ff;fill-rule:evenodd;stroke:#000000;stroke-width:1px;stroke-linecap:butt;stroke-linejoin:miter;stroke-opacity:1" />
    <g
       id="g29962"
       style="fill:none;stroke:#000000">
      <path
         style="visibility:hidden;fill:none;stroke:#000000;stroke-width:0.82706565"
         inkscape:connector-curvature="0"
         d="m 174.57503,522.09285 c 4.20487,0 7.6254,-3.42163 7.6254,-7.62541 0,-4.20377 -3.42053,-7.6254 -7.6254,-7.6254 -4.20487,0 -7.62541,3.42163 -7.62541,7.6254 0,4.20378 3.42054,7.62541 7.62541,7.62541 z m 0,-13.07212 c 3.00332,0 5.44672,2.44339 5.44672,5.44671 0,3.00333 -2.4434,5.44672 -5.44672,5.44672 -3.00332,0 -5.44672,-2.44339 -5.44672,-5.44672 0,-3.00332 2.4434,-5.44671 5.44672,-5.44671 z"
         id="path29949" />
      <circle
         style="visibility:hidden;fill:none;stroke:#000000;stroke-width:0.82706565"
         cx="174.57503"
         cy="514.46747"
         r="1.0893437"
         id="circle29951" />
      <path
         style="visibility:hidden;fill:none;stroke:#000000;stroke-width:0.82706565"
         inkscape:connector-curvature="0"
         d="m 141.90779,480.69779 0,42.05629 0,11.18103 0,8.9958 0,3.1275 2.55233,0 12.32375,0 9.50343,0 16.6016,0 9.50343,0 12.32375,0 2.55233,0 0,-3.1275 0,-8.9958 0,-11.18103 0,-42.05629 -65.36062,0 z m 40.68808,2.17869 c -0.41722,0.061 -0.77997,0.36166 -0.89544,0.79413 l -0.87257,3.25605 c -1.68086,-0.40197 -3.40202,-0.64707 -5.15042,-0.72551 l 0,-3.32467 6.91843,0 z m -9.09711,3.31814 c -1.7582,0.0675 -3.49026,0.30828 -5.18092,0.71134 l -0.86712,-3.23535 c -0.11547,-0.43138 -0.47822,-0.73204 -0.89326,-0.79413 l 6.9413,0 0,3.31814 z m -7.0023,-3.31814 c -0.12419,-0.0109 -0.25164,-0.01 -0.3791,0.024 -0.58171,0.15578 -0.92594,0.75274 -0.77016,1.33445 l 0.87365,3.26149 c -1.65253,0.53596 -3.25169,1.21789 -4.77895,2.0447 l -1.71789,-2.97608 c -0.30066,-0.5218 -0.96843,-0.70154 -1.48805,-0.3987 -0.52179,0.30065 -0.69936,0.96733 -0.3987,1.48804 l 1.73097,2.99678 c -1.45536,0.93357 -2.8312,1.98806 -4.10356,3.16346 l -2.45538,-2.45538 c -0.42593,-0.42594 -1.1144,-0.42594 -1.54033,0 -0.42593,0.42593 -0.42593,1.1144 0,1.54033 l 2.45429,2.45429 c -1.18085,1.26364 -2.2593,2.62423 -3.20158,4.08286 l -2.95757,-1.70809 c -0.52397,-0.30284 -1.18956,-0.1231 -1.49131,0.3987 -0.30066,0.52179 -0.12201,1.18738 0.3987,1.48804 l 2.94123,1.69829 c -0.71352,1.31484 -1.31702,2.69177 -1.81485,4.11772 -0.0621,0.0882 -0.12527,0.17647 -0.16013,0.28432 -0.024,0.073 -0.0174,0.14597 -0.0251,0.21896 -0.26906,0.82245 -0.50654,1.65798 -0.69609,2.51093 -0.13072,0.58716 0.23857,1.16887 0.82572,1.29959 0.59152,0.13399 1.16996,-0.23748 1.30068,-0.82572 0.11111,-0.49892 0.25818,-0.98477 0.3987,-1.4728 l 14.43598,4.69072 c 0.11221,0.0359 0.2255,0.0534 0.33661,0.0534 0.4597,0 0.88673,-0.29304 1.03597,-0.75274 0.18519,-0.57082 -0.12746,-1.1863 -0.69936,-1.37257 l -14.41529,-4.68418 c 3.70486,-9.63525 13.08302,-16.58199 23.36316,-17.00792 l 0,15.2007 c 0,0.6024 0.48802,1.08934 1.08934,1.08934 0.60132,0 1.08934,-0.48694 1.08934,-1.08934 l 0,-15.19308 c 10.35422,0.49892 19.73129,7.44022 23.37405,16.98723 l -14.45341,4.69725 c -0.57191,0.18627 -0.88564,0.80066 -0.69936,1.37257 0.14924,0.46079 0.57626,0.75274 1.03597,0.75274 0.11111,0 0.22549,-0.0174 0.3366,-0.0534 l 14.46649,-4.70052 c 0.1427,0.50219 0.28868,1.00329 0.39979,1.51746 0.11002,0.5109 0.56101,0.86058 1.06429,0.86058 0.0752,0 0.15251,-0.008 0.22985,-0.024 0.58824,-0.12527 0.96298,-0.7048 0.83661,-1.29414 -0.19717,-0.91831 -0.45534,-1.81484 -0.74511,-2.6983 -0.007,-0.0283 -0.001,-0.0566 -0.01,-0.0839 -0.0131,-0.0392 -0.0414,-0.0664 -0.0577,-0.1024 -0.50436,-1.49785 -1.13509,-2.94014 -1.88347,-4.31816 l 2.90746,-1.67868 c 0.52179,-0.30066 0.69936,-0.96733 0.3987,-1.48804 -0.30066,-0.5218 -0.96625,-0.70154 -1.48805,-0.3987 l -2.92815,1.69066 c -0.94446,-1.45645 -2.02727,-2.81704 -3.21683,-4.07959 l 2.43904,-2.43904 c 0.42593,-0.42594 0.42593,-1.1144 0,-1.54033 -0.42594,-0.42594 -1.1144,-0.42594 -1.54034,0 l -2.44666,2.44666 c -1.27562,-1.16886 -2.65473,-2.21899 -4.11554,-3.14929 l 1.73314,-3.00223 c 0.30066,-0.5218 0.12201,-1.18739 -0.3987,-1.48805 -0.52179,-0.30174 -1.18738,-0.122 -1.48804,0.3987 l -1.72552,2.98807 c -1.52617,-0.81918 -3.12424,-1.50002 -4.77786,-2.03489 l 0.88019,-3.28219 c 0.15577,-0.58062 -0.18846,-1.17867 -0.77017,-1.33445 -0.1329,-0.037 -0.2658,-0.0392 -0.39434,-0.0261 l 22.44919,0 0,39.57041 c -1.42486,-0.5011 -2.49241,-1.72661 -2.73207,-3.28437 l -0.55448,-3.60573 -6.7365,0 -0.80502,4.18526 c -0.27016,1.40089 -1.18085,2.51965 -2.49896,3.06432 -1.3181,0.54576 -2.75277,0.39979 -3.9358,-0.39979 l -3.52838,-2.38893 -4.76261,4.76261 2.1569,2.94232 c 0.85078,1.15906 1.04468,2.65146 0.51962,3.98918 -0.52507,1.3388 -1.68195,2.30069 -3.09483,2.57194 l -3.44015,0.66232 0,6.7365 3.60573,0.55556 c 1.11876,0.17212 2.06867,0.77126 2.70702,1.64273 l -14.80418,0 c 0.63836,-0.87038 1.58935,-1.46952 2.70811,-1.64273 l 3.60573,-0.55556 0,-6.7365 -3.43906,-0.66123 c -1.41288,-0.27125 -2.56976,-1.23314 -3.09483,-2.57195 -0.52506,-1.3388 -0.33116,-2.83011 0.51962,-3.98917 l 2.15799,-2.94232 -4.7637,-4.76261 -3.52838,2.38893 c -1.18085,0.80176 -2.61552,0.94773 -3.93471,0.40088 -1.3192,-0.54685 -2.22989,-1.66343 -2.50005,-3.06541 l -0.8072,-4.18635 -6.7365,0 -0.55448,3.60573 c -0.23965,1.55885 -1.30721,2.78327 -2.73207,3.28437 l 0,-39.57041 22.40998,0 z m -21.19863,61.00324 c -0.47169,-0.4597 -0.87692,-0.9706 -1.21135,-1.5229 l 0,-7.84763 c 1.37693,-2.2898 3.85736,-3.70159 6.53606,-3.70159 4.20487,0 7.62541,3.42163 7.62541,7.62541 0,2.05014 -0.83444,4.01314 -2.30179,5.44671 l -10.64833,0 z m 13.45121,0 c 1.07519,-1.60024 1.67759,-3.48916 1.67759,-5.44671 0,-5.40642 -4.39877,-9.8041 -9.80409,-9.8041 -2.4532,0 -4.76261,0.93684 -6.53606,2.52946 l 0,-6.43367 c 2.53381,-0.5621 4.47938,-2.59481 4.88461,-5.23102 l 0.27125,-1.7582 3.06759,0 0.46515,2.41725 c 0.40415,2.10352 1.82683,3.84865 3.80617,4.66784 1.97825,0.82027 4.21903,0.59151 5.9903,-0.61004 l 2.03925,-1.38128 2.16889,2.16888 -1.05122,1.43358 c -1.29523,1.76582 -1.59044,4.0371 -0.79086,6.07418 0.79957,2.03925 2.56104,3.50333 4.71141,3.91728 l 1.67105,0.32244 0,3.06759 -1.7582,0.27016 c -2.21899,0.34097 -4.02404,1.76692 -4.8759,3.79528 l -5.93693,0 z m 20.86529,-3.79527 -1.7582,-0.27016 0,-3.06759 1.67214,-0.32135 c 2.15037,-0.41395 3.91184,-1.87803 4.71142,-3.91728 0.79957,-2.03708 0.50436,-4.30836 -0.79087,-6.0731 l -1.0523,-1.43466 2.16888,-2.16888 2.03816,1.38128 c 1.77345,1.20155 4.01423,1.42813 5.99139,0.60895 1.97825,-0.81919 3.40093,-2.56432 3.80508,-4.66675 l 0.46624,-2.41943 3.06759,0 0.27125,1.7582 c 0.40523,2.63621 2.35189,4.66892 4.88461,5.23102 l 0,6.43367 c -1.77345,-1.59262 -4.08286,-2.52946 -6.53606,-2.52946 -5.40532,0 -9.80409,4.39768 -9.80409,9.8041 0,1.95755 0.60132,3.84647 1.6765,5.44671 l -5.93583,0 c -0.85187,-2.02944 -2.65691,-3.45539 -4.87591,-3.79527 z m 13.61571,3.79527 c -1.46735,-1.43357 -2.30178,-3.39657 -2.30178,-5.44671 0,-4.20378 3.42054,-7.62541 7.6254,-7.62541 2.6787,0 5.15804,1.41179 6.53606,3.7005 l 0,7.84872 c -0.33333,0.5523 -0.73857,1.0632 -1.21135,1.52182 l -10.64833,0 z"
         id="path29953" />
    </g>
    <use
       inkscape:export-ydpi="1150.1526"
       inkscape:export-xdpi="1150.1526"
       transform="matrix(0.06730368,0,0,0.06750671,504.41377,389.14454)"
       height="100%"
       width="100%"
       y="0"
       x="0"
       xlink:href="#basic_pencil_ruler_pen"
       style="visibility:hidden;fill:#ff0000;stroke:#ff0000"
       id="use24014" />
    <use
       id="use24023"
       style="visibility:hidden;fill:#ff0000;stroke:#ff0000"
       xlink:href="#basic_pencil_ruler_pen"
       x="0"
       y="0"
       width="100%"
       height="100%"
       transform="matrix(0.06730368,0,0,0.06750671,504.41377,389.14454)"
       inkscape:export-xdpi="1150.1526"
       inkscape:export-ydpi="1150.1526" />
  </g>
</svg>
