<?xml version="1.0" encoding="UTF-8" standalone="no"?>
<!-- Created with Inkscape (http://www.inkscape.org/) -->

<svg
   xmlns:dc="http://purl.org/dc/elements/1.1/"
   xmlns:cc="http://creativecommons.org/ns#"
   xmlns:rdf="http://www.w3.org/1999/02/22-rdf-syntax-ns#"
   xmlns:svg="http://www.w3.org/2000/svg"
   xmlns="http://www.w3.org/2000/svg"
   xmlns:sodipodi="http://sodipodi.sourceforge.net/DTD/sodipodi-0.dtd"
   xmlns:inkscape="http://www.inkscape.org/namespaces/inkscape"
   width="42.333336mm"
   height="42.333336mm"
   viewBox="0 0 150.00001 150.00001"
   id="svg24790"
   version="1.1"
   inkscape:version="0.91 r13725"
   sodipodi:docname="workinggreat.svg">
  <defs
     id="defs24792" />
  <sodipodi:namedview
     id="base"
     pagecolor="#ffffff"
     bordercolor="#666666"
     borderopacity="1.0"
     inkscape:pageopacity="0.0"
     inkscape:pageshadow="2"
     inkscape:zoom="3.3199996"
     inkscape:cx="75.000006"
     inkscape:cy="75"
     inkscape:document-units="px"
     inkscape:current-layer="layer1"
     showgrid="false"
     fit-margin-top="0"
     fit-margin-left="0"
     fit-margin-right="0"
     fit-margin-bottom="0"
     inkscape:window-width="1366"
     inkscape:window-height="705"
     inkscape:window-x="-8"
     inkscape:window-y="-8"
     inkscape:window-maximized="1" />
  <metadata
     id="metadata24795">
    <rdf:RDF>
      <cc:Work
         rdf:about="">
        <dc:format>image/svg+xml</dc:format>
        <dc:type
           rdf:resource="http://purl.org/dc/dcmitype/StillImage" />
        <dc:title></dc:title>
      </cc:Work>
    </rdf:RDF>
  </metadata>
  <g
     inkscape:label="Layer 1"
     inkscape:groupmode="layer"
     id="layer1"
     transform="translate(138.80816,-344.02748)">
    <path
       inkscape:connector-curvature="0"
       id="path29949"
       d="m -63.83961,403.27598 c -10.037843,0 -18.218785,8.18348 -18.218785,18.21881 0,10.03533 8.180942,18.21879 18.218785,18.21879 10.03782,0 18.218784,-8.18346 18.218784,-18.21879 0,-10.03533 -8.180964,-18.21881 -18.218784,-18.21881 z m 0,1.87678 c 9.021007,0 16.346449,7.32347 16.346449,16.34203 0,9.01856 -7.325442,16.34645 -16.346449,16.34645 -9.02103,0 -16.34203,-7.32789 -16.34203,-16.34645 0,-9.01856 7.321,-16.34203 16.34203,-16.34203 z m 0,3.06302 c -7.314678,0 -13.279013,5.96433 -13.279013,13.27901 0,7.3147 5.964335,13.28343 13.279013,13.28341 7.314677,0 13.283432,-5.96871 13.283432,-13.28341 0,-7.31468 -5.968755,-13.27901 -13.283432,-13.27901 z m 0,1.87233 c 6.298068,0 11.406655,5.10861 11.406655,11.40668 0,6.29809 -5.108587,11.40666 -11.406655,11.40666 -6.298069,0 -11.406656,-5.10857 -11.406656,-11.40666 0,-6.29807 5.108587,-11.40668 11.406656,-11.40668 z"
       style="color:#000000;font-style:normal;font-variant:normal;font-weight:normal;font-stretch:normal;font-size:medium;line-height:normal;font-family:sans-serif;text-indent:0;text-align:start;text-decoration:none;text-decoration-line:none;text-decoration-style:solid;text-decoration-color:#000000;letter-spacing:normal;word-spacing:normal;text-transform:none;direction:ltr;block-progression:tb;writing-mode:lr-tb;baseline-shift:baseline;text-anchor:start;white-space:normal;clip-rule:nonzero;display:inline;overflow:visible;visibility:hidden;opacity:1;isolation:auto;mix-blend-mode:normal;color-interpolation:sRGB;color-interpolation-filters:linearRGB;solid-color:#000000;solid-opacity:1;fill:#000000;fill-opacity:1;fill-rule:nonzero;stroke:none;stroke-width:0.82706565;stroke-linecap:butt;stroke-linejoin:miter;stroke-miterlimit:4;stroke-dasharray:none;stroke-dashoffset:0;stroke-opacity:1;color-rendering:auto;image-rendering:auto;shape-rendering:auto;text-rendering:auto;enable-background:accumulate" />
    <path
       style="visibility:hidden;fill:none;stroke:#000000;stroke-width:1.87436473"
       d="m -61.369019,421.49631 a 2.468761,2.468761 0 0 1 -2.468761,2.46876 2.468761,2.468761 0 0 1 -2.468761,-2.46876 2.468761,2.468761 0 0 1 2.468761,-2.46876 2.468761,2.468761 0 0 1 2.468761,2.46876 z"
       id="circle29951" />
    <path
       inkscape:connector-curvature="0"
       id="path25369"
       d="m -137.87098,344.96466 0,95.31145 0,25.33938 0,20.38703 0,7.0878 5.7843,0 27.9291,0 21.537464,0 37.623923,0 21.537461,0 27.9291035,0 5.7843015,0 0,-7.0878 0,-20.38703 0,-25.33938 0,-95.31145 -148.125653,0 z"
       style="visibility:hidden;fill:none;stroke:#000000;stroke-width:1.87436473" />
    <path
       inkscape:connector-curvature="0"
       id="path25367"
       d="m -45.660282,349.90219 c -0.945539,0.13824 -1.767633,0.81962 -2.029321,1.79972 l -1.97749,7.37913 c -3.809304,-0.91097 -7.70994,-1.46644 -11.672309,-1.64421 l 0,-7.53464 15.67912,0 z"
       style="visibility:hidden;fill:none;stroke:#000000;stroke-width:1.87436473" />
    <path
       inkscape:connector-curvature="0"
       id="path25365"
       d="m -66.276907,357.42203 c -3.984579,0.15298 -7.909917,0.69865 -11.74143,1.6121 l -1.96514,-7.33222 c -0.261687,-0.97763 -1.083781,-1.65901 -2.02438,-1.79972 l 15.73095,0 0,7.51984 z"
       style="visibility:hidden;fill:none;stroke:#000000;stroke-width:1.87436473" />
    <path
       inkscape:connector-curvature="0"
       id="path25363"
       d="m -82.1461,349.90219 c -0.281449,-0.0247 -0.570287,-0.0227 -0.859148,0.0544 -1.318319,0.35304 -2.098442,1.70592 -1.7454,3.02424 l 1.979938,7.39146 c -3.745101,1.21464 -7.369249,2.76008 -10.830453,4.63387 l -3.893224,-6.74464 c -0.681381,-1.18255 -2.194737,-1.58989 -3.372343,-0.90357 -1.18252,0.68136 -1.58495,2.19225 -0.90357,3.37232 l 3.922871,6.79155 c -3.298261,2.11574 -6.416301,4.50551 -9.299831,7.1693 l -5.56458,-5.56459 c -0.96528,-0.9653 -2.52555,-0.9653 -3.49083,0 -0.96527,0.96528 -0.96527,2.52555 0,3.49083 l 5.56212,5.56211 c -2.67614,2.86377 -5.12021,5.94725 -7.25569,9.25292 l -6.70269,-3.87102 c -1.18746,-0.68632 -2.69588,-0.27898 -3.37973,0.90357 -0.68138,1.18252 -0.27651,2.69094 0.90357,3.37232 l 6.66566,3.84881 c -1.61704,2.97979 -2.98474,6.10031 -4.11296,9.33191 -0.14074,0.19989 -0.2839,0.39993 -0.3629,0.64435 -0.0544,0.16544 -0.0394,0.33081 -0.0569,0.49623 -0.60976,1.8639 -1.14796,3.75745 -1.57754,5.69048 -0.29624,1.33067 0.54067,2.64899 1.87132,2.94523 1.34055,0.30366 2.65146,-0.53819 2.94771,-1.87131 0.25181,-1.13069 0.58511,-2.23177 0.90357,-3.33778 l 32.716011,10.6305 c 0.254299,0.0814 0.511046,0.12102 0.762853,0.12102 1.04181,0 2.009581,-0.66412 2.347801,-1.70593 0.419693,-1.29364 -0.28886,-2.68849 -1.584947,-3.11063 l -32.669128,-10.61567 c 8.39626,-21.83621 29.649827,-37.57948 52.947532,-38.54476 l 0,34.44908 c 0,1.36521 1.105992,2.46876 2.468753,2.46876 1.362761,0 2.468753,-1.10355 2.468753,-2.46876 l 0,-34.43181 c 23.465591,1.13069 44.716685,16.86164 52.9722094,38.49787 l -32.7555164,10.64529 c -1.296109,0.42214 -2.00711,1.81452 -1.584947,3.11063 0.33822,1.04428 1.305968,1.70593 2.347801,1.70593 0.251807,0 0.511024,-0.0394 0.762831,-0.12102 l 32.7851586,-10.65271 c 0.3233986,1.1381 0.6542306,2.27374 0.9060373,3.43899 0.2493364,1.15785 1.2714074,1.95032 2.4119822,1.95032 0.1704245,0 0.3456308,-0.0181 0.5209051,-0.0544 1.3331183,-0.2839 2.18238515,-1.59728 1.895995,-2.93289 -0.446843,-2.08115 -1.0319293,-4.11294 -1.6886301,-6.11511 -0.015864,-0.0641 -0.00227,-0.12827 -0.022663,-0.19014 -0.029688,-0.0888 -0.093824,-0.15048 -0.1307645,-0.23207 -1.1430225,-3.39455 -2.5724351,-6.66319 -4.2684759,-9.78617 l 6.5891269,-3.80436 c 1.18252375,-0.68138 1.58494761,-2.19225 0.90356699,-3.37232 -0.68138062,-1.18255 -2.18979589,-1.58989 -3.37234229,-0.90357 l -6.6360163,3.83151 c -2.140413,-3.30072 -4.594367,-6.38421 -7.290247,-9.2455 l 5.527555,-5.52756 c 0.965278,-0.9653 0.965278,-2.52554 0,-3.49082 -0.9653,-0.9653 -2.525546,-0.9653 -3.490846,0 l -5.544824,5.54482 c -2.890916,-2.64896 -6.016369,-5.02886 -9.326978,-7.13718 l 3.927786,-6.8039 c 0.68138,-1.18255 0.276509,-2.69096 -0.903567,-3.37234 -1.182524,-0.68383 -2.690939,-0.27649 -3.37232,0.90356 l -3.910516,6.77182 c -3.458733,-1.8565 -7.080412,-3.39947 -10.827983,-4.61164 l 1.99476,-7.43837 c 0.353019,-1.31585 -0.427104,-2.6712 -1.745423,-3.02424 -0.301189,-0.0839 -0.602378,-0.0888 -0.893686,-0.0591 l 50.8762149,0 0,89.67774 c -3.2291358,-1.13563 -5.64850612,-3.91299 -6.19164348,-7.44331 l -1.25660852,-8.1716 -15.2668149,0 -1.824403,9.48498 c -0.612259,3.17481 -2.67614,5.71024 -5.66335,6.94461 -2.987188,1.23685 -6.238556,0.90604 -8.919636,-0.90603 l -7.996308,-5.41399 -10.793421,10.79342 4.888145,6.66813 c 1.928109,2.62675 2.367541,6.00896 1.177606,9.04061 -1.189957,3.0341 -3.811774,5.21401 -7.01376,5.82874 l -7.796353,1.50101 0,15.26681 8.171604,1.25906 c 2.535427,0.39007 4.688192,1.74789 6.134873,3.72289 l -33.55046,0 c 1.446705,-1.97253 3.601917,-3.33035 6.137344,-3.72289 l 8.171604,-1.25906 0,-15.26681 -7.793883,-1.49854 c -3.201986,-0.61473 -5.823803,-2.79464 -7.01376,-5.82877 -1.189935,-3.03409 -0.750502,-6.41382 1.177606,-9.04058 l 4.890616,-6.66813 -10.795892,-10.79342 -7.996308,5.41399 c -2.67614,1.81701 -5.927508,2.14782 -8.917169,0.9085 -2.98968,-1.23931 -5.05356,-3.7698 -5.66582,-6.94708 l -1.82934,-9.48745 -15.26682,0 -1.2566,8.1716 c -0.54312,3.53279 -2.96251,6.30768 -6.19165,7.44331 l 0,-89.67774 50.787357,0 z"
       style="visibility:hidden;fill:none;stroke:#000000;stroke-width:1.87436473" />
    <path
       inkscape:connector-curvature="0"
       id="path25361"
       d="m -130.18819,488.15279 c -1.06899,-1.04181 -1.98735,-2.19966 -2.74526,-3.45132 l 0,-17.78495 c 3.12051,-5.18934 8.74186,-8.38885 14.81256,-8.38885 9.52942,0 17.28133,7.75438 17.28133,17.28133 0,4.6462 -1.89107,9.09491 -5.2165,12.34379 l -24.13213,0 z"
       style="visibility:hidden;fill:none;stroke:#000000;stroke-width:1.87436473" />
    <path
       inkscape:connector-curvature="0"
       id="path25359"
       d="m -99.703945,488.15279 c 2.436684,-3.6266 3.801893,-7.90742 3.801893,-12.34379 0,-12.25247 -9.968858,-22.21886 -22.218838,-22.21886 -5.55965,0 -10.79342,2.12314 -14.81256,5.73247 l 0,-14.58052 c 5.74233,-1.27387 10.15154,-5.88057 11.0699,-11.85497 l 0.61473,-3.98457 6.95203,0 1.05416,5.47817 c 0.91592,4.76717 4.14011,8.72213 8.62586,10.57864 4.48327,1.85897 9.561515,1.34053 13.575714,-1.38252 l 4.621517,-3.13037 4.915319,4.91529 -2.382362,3.2489 c -2.935358,4.00185 -3.604387,9.14921 -1.792313,13.76581 1.812052,4.62152 5.804041,7.93954 10.677388,8.87767 l 3.787072,0.73074 0,6.95202 -3.984579,0.61226 c -5.028859,0.77274 -9.119613,4.00434 -11.050168,8.60118 l -13.454763,0 z"
       style="visibility:hidden;fill:none;stroke:#000000;stroke-width:1.87436473" />
    <path
       inkscape:connector-curvature="0"
       id="path25357"
       d="m -52.417295,479.55163 -3.984579,-0.61226 0,-6.95202 3.789542,-0.72827 c 4.873347,-0.93813 8.865336,-4.25615 10.677411,-8.87767 1.812052,-4.6166 1.143022,-9.76396 -1.792335,-13.76336 l -2.38481,-3.25134 4.915296,-4.9153 4.619047,3.13037 c 4.01914,2.72305 9.097381,3.23655 13.578185,1.38005 4.483274,-1.85651 7.707469,-5.81147 8.623388,-10.57617 l 1.056631,-5.48311 6.952027,0 0.6147293,3.98457 c 0.9183658,5.9744 5.33004808,10.5811 11.0699081,11.85497 l 0,14.58052 c -4.0191394,-3.60933 -9.2529158,-5.73247 -14.812561,-5.73247 -12.2499844,0 -22.2188414,9.96639 -22.2188414,22.21886 0,4.43637 1.362761,8.71719 3.799423,12.34379 l -13.45227,0 c -1.930578,-4.59929 -6.02131,-7.83089 -11.050191,-8.60116 z"
       style="visibility:hidden;fill:none;stroke:#000000;stroke-width:1.87436473" />
    <path
       inkscape:connector-curvature="0"
       id="path29953"
       d="m -21.560245,488.15279 c -3.32543,-3.24888 -5.216484,-7.69759 -5.216484,-12.34379 0,-9.52695 7.751911,-17.28133 17.2813134,-17.28133 6.070692,0 11.6895778,3.19951 14.812561,8.38638 l 0,17.78742 c -0.7554201,1.25166 -1.6738086,2.40951 -2.7452618,3.44887 l -24.1321286,0 z"
       style="visibility:hidden;fill:none;stroke:#000000;stroke-width:1.87436473" />
  </g>
</svg>
